<svg xmlns="http://www.w3.org/2000/svg" viewBox="0 0 42 42"><defs><style>.cls-1{fill:#6883e4;fill-opacity:0.2;fill-rule:evenodd;}</style></defs><title>Asset 6</title><g id="Layer_2" data-name="Layer 2"><g id="Layer_1-2" data-name="Layer 1"><path class="cls-1" d="M21,0A21,21,0,1,0,42,21,21,21,0,0,0,21,0Zm0,10.5a2.1,2.1,0,0,0-2.1,2.1v6.3H12.6a2.1,2.1,0,1,0,0,4.2h6.3v6.3a2.1,2.1,0,0,0,4.2,0V23.1h6.3a2.1,2.1,0,0,0,0-4.2H23.1V12.6A2.1,2.1,0,0,0,21,10.5ZM4.2,21A16.8,16.8,0,1,0,21,4.2,16.82,16.82,0,0,0,4.2,21Z"/></g></g></svg>