<svg xmlns="http://www.w3.org/2000/svg" viewBox="0 0 12.01 10"><defs><style>.cls-1{fill:#df4036;fill-rule:evenodd;}</style></defs><title>Asset 5</title><g id="Layer_2" data-name="Layer 2"><g id="Layer_1-2" data-name="Layer 1"><path class="cls-1" d="M.93.93a.55.55,0,0,1,0-.77.56.56,0,0,1,.78,0l8.9,8.91a.54.54,0,0,1-.77.77L8.35,8.36A6.54,6.54,0,0,1,6,8.8,6.44,6.44,0,0,1,0,4.71,6.52,6.52,0,0,1,2,2Zm7.8,3.78A2.73,2.73,0,0,0,6,2a3,3,0,0,0-.8.13L4,.93a6.46,6.46,0,0,1,8,3.78,6.46,6.46,0,0,1-1.74,2.47L8.6,5.51A2.63,2.63,0,0,0,8.73,4.71ZM6,7.44A2.73,2.73,0,0,1,3.27,4.71a2.68,2.68,0,0,1,.27-1.17l.86.86a1.55,1.55,0,0,0,0,.31A1.63,1.63,0,0,0,6,6.35a1.55,1.55,0,0,0,.31,0l.86.86A2.68,2.68,0,0,1,6,7.44ZM7.62,4.53A1.62,1.62,0,0,0,6.18,3.09Z"/></g></g></svg>