<svg xmlns="http://www.w3.org/2000/svg" viewBox="0 0 63 63"><defs><style>.cls-1,.cls-2,.cls-3{fill:none;stroke-linecap:round;stroke-width:10px;}.cls-1{stroke:#7cf797;}.cls-2{stroke:#f7645b;}.cls-3{stroke:#6883e4;stroke-linejoin:round;}</style></defs><title>Asset 8</title><g id="Layer_2" data-name="Layer 2"><g id="Layer_1-2" data-name="Layer 1"><circle class="cls-1" cx="31.5" cy="31.5" r="26.5"/><path class="cls-2" d="M58,31.13a25.83,25.83,0,0,0-3.91-13.66A26.46,26.46,0,0,0,43.52,7.84,26.8,26.8,0,0,0,15.9,10,26.26,26.26,0,0,0,7,21.17a25.81,25.81,0,0,0,4.39,27,26.52,26.52,0,0,0,12,7.86"/><path class="cls-3" d="M58,31.45A26.5,26.5,0,0,0,6.3,23.28,26.43,26.43,0,0,0,10.06,47"/></g></g></svg>