<svg xmlns="http://www.w3.org/2000/svg" viewBox="0 0 15 27"><defs><style>.cls-1{fill:#6883e4;}</style></defs><title>Asset 1</title><g id="Layer_2" data-name="Layer 2"><g id="Layer_1-2" data-name="Layer 1"><path class="cls-1" d="M8,11.85c-3.4-.88-4.5-1.8-4.5-3.22C3.45,7,5,5.85,7.5,5.85c2.13,0,3.19.81,3.59,2.1a1.38,1.38,0,0,0,1.3,1h.45a1.43,1.43,0,0,0,1.35-1.91,6,6,0,0,0-4.44-3.8v-1a2.25,2.25,0,0,0-4.5,0v1C2.34,3.87,0,5.76,0,8.65c0,3.47,2.87,5.2,7.05,6.2,3.75.9,4.5,2.22,4.5,3.62,0,1-.74,2.68-4.05,2.68C5,21.15,3.75,20.26,3.26,19A1.49,1.49,0,0,0,1.9,18H1.49A1.43,1.43,0,0,0,.15,20a6.78,6.78,0,0,0,5.1,3.8v1a2.25,2.25,0,0,0,4.5,0v-1c2.93-.55,5.25-2.25,5.25-5.32C15,14.19,11.35,12.73,8,11.85Z"/></g></g></svg>