<svg xmlns="http://www.w3.org/2000/svg" viewBox="0 0 26 26"><defs><style>.cls-1{fill:#6883e4;fill-rule:evenodd;}</style></defs><title>Asset 2</title><g id="Layer_2" data-name="Layer 2"><g id="Layer_1-2" data-name="Layer 1"><path class="cls-1" d="M13,0A13,13,0,1,0,26,13,13,13,0,0,0,13,0Zm4.69,8.24a2.51,2.51,0,1,1-2.51,2.51A2.51,2.51,0,0,1,17.69,8.24ZM13,9.26a3.07,3.07,0,1,0-3.07,3.06A3.08,3.08,0,0,0,13,9.26Zm-3.07,8.8v4.87a10.39,10.39,0,0,1-6.68-6.45C4.58,15,8,14.29,9.89,14.29a13.33,13.33,0,0,1,2.47.28C10.23,15.7,9.89,17.2,9.89,18.06ZM12,23.35a8.77,8.77,0,0,0,1,0,10.42,10.42,0,0,0,9.68-6.62,9.26,9.26,0,0,0-5-1.49c-1.89,0-5.72.92-5.72,2.77Z"/></g></g></svg>