<svg xmlns="http://www.w3.org/2000/svg" viewBox="0 0 29 37.27"><defs><style>.cls-1{fill:#ffffff;fill-rule:evenodd;}</style></defs><title>Asset 4</title><g id="Layer_2" data-name="Layer 2"><g id="Layer_1-2" data-name="Layer 1"><path class="cls-1" d="M28.43,28.27,26,25.8V16.25c0-5.87-3.14-10.78-8.6-12.08V2.87a2.87,2.87,0,0,0-5.74,0v1.3C6.15,5.47,3,10.36,3,16.25V25.8L.57,28.27A1.91,1.91,0,0,0,1.9,31.54H27.08A1.91,1.91,0,0,0,28.43,28.27ZM6.85,27.71V16.25c0-4.74,2.89-8.6,7.65-8.6s7.65,3.86,7.65,8.6V27.71Zm11.47,5.74a3.82,3.82,0,0,1-7.64,0Z"/></g></g></svg>