<svg xmlns="http://www.w3.org/2000/svg" viewBox="0 0 10.94 10.94"><defs><style>.cls-1{fill:#8c8c8c;}</style></defs><title>search_icon</title><g id="Layer_2" data-name="Layer 2"><g id="Layer_1-2" data-name="Layer 1"><path class="cls-1" d="M10.9,10.15,7.35,6.6A4,4,0,0,0,8.2,4.1,4.1,4.1,0,0,0,4.1,0,4.1,4.1,0,0,0,1.2,7,4.07,4.07,0,0,0,4.1,8.2a4.05,4.05,0,0,0,2.5-.84l3.55,3.54s0,0,0,0h.08s0,0,0,0l.59-.59s0,0,0,0,0,0,0,0v0S10.92,10.16,10.9,10.15ZM6.27,6.27a3,3,0,0,1-2.17.89,3,3,0,0,1-2.16-.89A3,3,0,0,1,1,4.1a3,3,0,0,1,.9-2.16,3.05,3.05,0,0,1,4.33,0A3,3,0,0,1,7.16,4.1,3,3,0,0,1,6.27,6.27Z"/></g></g></svg>